<?xml version="1.0" encoding="UTF-8"?>
<!DOCTYPE svg PUBLIC "-//W3C//DTD SVG 1.1//EN" "http://www.w3.org/Graphics/SVG/1.1/DTD/svg11.dtd">
<!-- Creator: CorelDRAW 2021.5 -->
<svg xmlns="http://www.w3.org/2000/svg" xml:space="preserve" width="1173px" height="1178px" version="1.1" style="shape-rendering:geometricPrecision; text-rendering:geometricPrecision; image-rendering:optimizeQuality; fill-rule:evenodd; clip-rule:evenodd"
viewBox="0 0 501.45 503.65"
 xmlns:xlink="http://www.w3.org/1999/xlink"
 xmlns:xodm="http://www.corel.com/coreldraw/odm/2003">
 <defs>
  <style type="text/css">
   <![CDATA[
    .fil2 {fill:url(#id0)}
    .fil0 {fill:url(#id1)}
    .fil3 {fill:url(#id2)}
    .fil1 {fill:url(#id3)}
   ]]>
  </style>
  <linearGradient id="id0" gradientUnits="userSpaceOnUse" x1="195.42" y1="470.74" x2="195.42" y2="508.38">
   <stop offset="0" style="stop-opacity:1; stop-color:#E7B462"/>
   <stop offset="0.121569" style="stop-opacity:1; stop-color:#7A4D33"/>
   <stop offset="0.431373" style="stop-opacity:1; stop-color:#E7B462"/>
   <stop offset="0.521569" style="stop-opacity:1; stop-color:#F8F4AE"/>
   <stop offset="0.701961" style="stop-opacity:1; stop-color:#E7B462"/>
   <stop offset="0.901961" style="stop-opacity:1; stop-color:#AB7543"/>
   <stop offset="1" style="stop-opacity:1; stop-color:#FBC66A"/>
  </linearGradient>
  <linearGradient id="id1" gradientUnits="userSpaceOnUse" xlink:href="#id0" x1="193.69" y1="-92.96" x2="193.69" y2="416.82">
  </linearGradient>
  <linearGradient id="id2" gradientUnits="userSpaceOnUse" xlink:href="#id0" x1="168.76" y1="487" x2="168.76" y2="493.86">
  </linearGradient>
  <linearGradient id="id3" gradientUnits="userSpaceOnUse" xlink:href="#id0" x1="168.76" y1="363.13" x2="168.76" y2="471.44">
  </linearGradient>
 </defs>
 <g id="Layer_x0020_1">
  <metadata id="CorelCorpID_0Corel-Layer"/>
  <g id="_2078960161344">
   <path class="fil0" d="M304.26 344.31c9.67,-41.42 44.56,-70.03 68.74,-80.03 -44.21,10.55 -70.01,53.37 -76.28,76.91 0,0 -3.57,-27.09 29.03,-57.69 32.6,-30.6 74.62,-36.77 79.2,-75.41 4.59,-38.64 -14.62,-62.76 -14.62,-62.76 0,0 -7.77,2.55 -6.55,12.6 1.22,10.06 11.71,27.69 -1.35,56.41 -13.07,28.72 -55,35.73 -55,35.73 0,0 -2.21,-6.37 1.01,-15.73 3.23,-9.36 18.75,-18.53 23.39,-41.37 4.63,-22.84 -12.5,-23.08 -12.5,-23.08 0,0 2.82,5.24 -3.03,20.59 -5.84,15.35 -28.56,27.37 -50.16,50.4 -21.59,23.02 -22.44,63.83 -22.44,63.83l0 41.91 0 5.59c2.86,-0.21 5.69,-0.49 8.5,-0.83 0.5,-37.96 22.61,-80.85 69.34,-91.85 -33.45,16.44 -59.7,54.62 -59.11,90.28 7.45,-1.37 14.74,-3.21 21.83,-5.5zm3.65 -330.95c68.26,23.68 117.28,88.54 117.28,164.86 0,66.95 -37.72,125.09 -93.07,154.34 -0.91,0.39 -4.52,1.63 -6.08,-2.21 -1.36,-3.33 0.99,-5.23 2.21,-5.95l0.59 -0.32 0.08 -0.03 0 -0.01c51.93,-27.9 87.24,-82.73 87.24,-145.82 0,-72.11 -46.15,-133.44 -110.52,-156.09l-0.01 -0.01c-7.39,-2.41 -4.13,-10.58 2.28,-8.76zm-138.59 319.2c-55.34,-29.25 -93.06,-87.39 -93.06,-154.34 0,-76.32 49.01,-141.18 117.28,-164.86 6.41,-1.82 9.67,6.35 2.27,8.76l0 0.01c-64.37,22.65 -110.52,83.98 -110.52,156.09 0,63.09 35.31,117.92 87.24,145.82l0 0.01 0.08 0.03 0.59 0.32c1.22,0.72 3.56,2.62 2.21,5.95 -1.57,3.84 -5.17,2.6 -6.09,2.21zm62.22 -151.92c-2.11,1.45 -2.65,4.37 -1.2,6.48l15.68 22.79 0 142.71c1.56,0.04 3.13,0.07 4.7,0.07 1.55,0 3.09,-0.03 4.63,-0.06l0 -142.72 15.68 -22.79c1.45,-2.11 0.91,-5.03 -1.21,-6.48 -2.11,-1.46 -5.03,-0.92 -6.48,1.19l-7.99 11.61 0 -52.66c0,-2.56 -2.1,-4.67 -4.67,-4.67 -2.56,0 -4.66,2.1 -4.66,4.67l0 52.66 -7.99 -11.61c-1.45,-2.11 -4.37,-2.65 -6.49,-1.19zm3.26 -12.14c0,0 7.4,-31.28 -26.42,-46.95 -33.83,-15.67 -29.28,-38.58 -28.77,-43.13 0.5,-4.54 0.5,-4.54 0.5,-4.54 0,0 -30.45,28.46 -16.64,69.67 13.81,41.2 58.69,32.88 58.69,32.88 0,0 -8.76,-15.16 -26.78,-25.43 -18.02,-10.27 -17.52,-25.26 -17.52,-25.26 0,0 4.21,11.45 21.56,16.67 17.35,5.22 28.97,15.33 35.38,26.09zm32.22 0c0,0 -7.4,-31.28 26.42,-46.95 33.83,-15.67 29.28,-38.58 28.77,-43.13 -0.5,-4.54 -0.5,-4.54 -0.5,-4.54 0,0 30.45,28.46 16.64,69.67 -13.8,41.2 -58.69,32.88 -58.69,32.88 0,0 8.76,-15.16 26.78,-25.43 18.02,-10.27 17.52,-25.26 17.52,-25.26 0,0 -4.21,11.45 -21.56,16.67 -17.35,5.22 -28.97,15.33 -35.38,26.09zm-24.43 -48.54c0,0 -16.28,-19.33 -5,-29.27 11.29,-9.93 13.32,-28.39 13.32,-28.39 0,0 2.03,18.46 13.32,28.39 11.28,9.94 -5,29.27 -5,29.27 38.97,-6.06 36.18,-44.12 32.51,-54.82 -3.66,-10.7 -2.94,-16.24 -2.94,-16.24 0,0 -0.1,0.09 -0.26,0.28l-0.01 0c-0.06,0.04 -4.42,2.65 -6.45,10.55 -1.75,6.8 -2.78,9.41 -5.78,12.07l0 0 -0.03 0.03 -0.02 0.02 -0.02 0.02 -0.02 0.02 -0.03 0.02 -0.02 0.02 -0.03 0.02 -0.02 0.02 -0.01 0.01 -0.02 0.01 -0.02 0.03 -0.02 0.02 -0.03 0.02 -0.02 0.02 -0.03 0.02 -0.02 0.02 -0.01 0.01 -0.02 0.01 -0.02 0.02 -0.03 0.02 -0.02 0.02 -0.03 0.03 -0.03 0.02 -0.02 0.02 -0.01 0 -0.02 0.02 -0.02 0.02 -0.03 0.02 -0.02 0.02 -0.03 0.02 -0.03 0.02 -0.02 0.03 -0.01 0 -0.02 0.02 -0.02 0.02 -0.03 0.02 -0.03 0.02 -0.02 0.02 -0.03 0.02 -0.03 0.02 0 0.01 -0.02 0.01 -0.03 0.03 -0.03 0.02 -0.03 0.02 -0.02 0.02 -0.03 0.02 -0.03 0.02 0 0.01 -0.03 0.02 -0.02 0.02 -0.03 0.02 -0.03 0.02 -0.03 0.02 -0.02 0.03 -0.03 0.02 0 0 -0.03 0.02 -0.03 0.02 -0.03 0.02 -0.03 0.02 -0.02 0.02 -0.03 0.03 -0.03 0.02 0 0 -0.03 0.02 -0.03 0.02 -0.03 0.03 -0.03 0.02 -0.03 0.02 -0.03 0.02 -0.03 0.02c-4.37,3.29 -6.2,3.94 -6.2,3.94l0.01 -0.01 0.01 0 0 -0.01 0 -0.01 0.01 -0.01 0.02 -0.02 0 0 0.01 -0.02 0.02 -0.02 0 -0.01 0.02 -0.02 0.02 -0.04 0.01 -0.01 0.01 -0.02 0.03 -0.04 0.01 -0.02 0.01 -0.02 0.03 -0.05 0.02 -0.03 0.01 -0.02 0.04 -0.05 0.02 -0.04 0.01 -0.02 0.03 -0.06 0.03 -0.05 0.01 -0.01 0.04 -0.07 0.04 -0.06 0 -0.01 0.04 -0.07 0.04 -0.08 0 0 0.05 -0.08 0.04 -0.09 0 0 0.05 -0.09 0.04 -0.09 0.01 -0.01 0.04 -0.08 0.05 -0.11 0.01 -0.02 0.04 -0.08 0.05 -0.11 0.02 -0.03 0.04 -0.08 0.05 -0.11 0.02 -0.05 0.03 -0.07 0.06 -0.12 0.02 -0.06 0.03 -0.07 0.06 -0.13 0.03 -0.08 0.02 -0.05 0.06 -0.14 0.04 -0.09 0.02 -0.05 0.05 -0.15 0.05 -0.11 0.01 -0.04 0.06 -0.15 0.05 -0.13 0.01 -0.02 0.06 -0.16 0.05 -0.16 0 -0.01 0.06 -0.17 0.06 -0.17 0 0 0.06 -0.18 0.06 -0.18 0 -0.02 0.06 -0.16 0.06 -0.19 0.01 -0.04 0.04 -0.15 0.06 -0.2 0.01 -0.05 0.05 -0.15 0.05 -0.2 0.02 -0.08 0.04 -0.13 0.06 -0.21 0.02 -0.1 0.03 -0.12 0.05 -0.22 0.04 -0.12 0.02 -0.1 0.05 -0.23 0.03 -0.15 0.02 -0.08 0.06 -0.24 -0.01 0c1.19,-5.55 1.66,-14.44 -1.53,-27.41 -6.12,-24.88 -28.36,-40.37 -33.18,-42.34 0,0 8.15,17.97 2.29,36.85 -5.87,18.87 -15.18,28.31 -15.18,28.31 0,0 -1.31,-4.2 -4.16,-8.81 -2.81,-4.54 -5.97,-7.02 -6.07,-7.1 -0.21,-0.24 -0.33,-0.35 -0.33,-0.35 0,0 0.72,5.54 -2.95,16.24 -3.66,10.7 -6.45,48.76 32.52,54.82zm-45.4 224.35c-9.67,-41.42 -44.56,-70.03 -68.74,-80.03 44.21,10.55 70.01,53.37 76.28,76.91 0,0 3.57,-27.09 -29.03,-57.69 -32.61,-30.6 -74.62,-36.77 -79.2,-75.41 -4.59,-38.64 14.62,-62.76 14.62,-62.76 0,0 7.77,2.55 6.55,12.6 -1.22,10.06 -11.71,27.69 1.35,56.41 13.07,28.72 54.99,35.73 54.99,35.73 0,0 2.22,-6.37 -1,-15.73 -3.23,-9.36 -18.75,-18.53 -23.39,-41.37 -4.64,-22.84 12.5,-23.08 12.5,-23.08 0,0 -2.82,5.24 3.03,20.59 5.84,15.35 28.56,27.37 50.16,50.4 21.59,23.02 22.44,63.83 22.44,63.83l0 41.91 0 5.59c-2.86,-0.21 -5.69,-0.49 -8.5,-0.83 -0.5,-37.96 -22.61,-80.85 -69.34,-91.85 33.45,16.44 59.7,54.62 59.11,90.28 -7.45,-1.37 -14.74,-3.21 -21.83,-5.5zm-56.28 -183.26c0,0 -7.77,18.32 -2.15,35.76 5.62,17.44 15.27,27.87 21.23,33.41 5.97,5.54 5.09,9.29 5.09,9.29 0,0 -30.68,-5.41 -40.89,-35.85 -10.2,-30.45 13.5,-57.93 13.5,-57.93 0,0 7.13,6.56 3.22,15.32zm219.63 0c0,0 7.76,18.32 2.15,35.76 -5.62,17.44 -15.27,27.87 -21.23,33.41 -5.97,5.54 -5.09,9.29 -5.09,9.29 0,0 30.68,-5.41 40.88,-35.85 10.21,-30.45 -13.49,-57.93 -13.49,-57.93 0,0 -7.13,6.56 -3.22,15.32z"/>
   <g>
    <path class="fil1" d="M96.38 457.82l-31.81 0 0 -2.06 2.62 0c2.35,0 4.26,-0.57 5.75,-1.74 1.46,-1.18 2.2,-4.23 2.2,-9.18l0 -50.07 -28.87 63.05 -1.85 0 -28.98 -63.05 0 50.07c0,4.95 0.68,8 2.05,9.18 1.38,1.17 3.35,1.74 5.95,1.74l2.66 0 0 2.06 -26.1 0 0 -2.06 2.63 0c2.29,0 4.2,-0.57 5.69,-1.74 1.51,-1.18 2.29,-4.23 2.29,-9.18l0 -48.99c0,-3.88 -0.63,-6.65 -1.89,-8.37 -1.26,-1.71 -4.17,-2.54 -8.72,-2.54l0 -2.06 21.24 0 27.15 58.65 26.75 -58.65 21.24 0 0 2.06 -2.61 0c-2.31,0 -4.23,0.57 -5.74,1.77 -1.49,1.17 -2.26,4.23 -2.26,9.14l0 48.99c0,4.89 0.72,7.92 2.09,9.12 1.37,1.2 3.34,1.8 5.91,1.8l2.61 0 0 2.06zm76.34 -18.81l-6.46 18.81 -57.76 0 0 -2.06 2.66 0c2.63,0 4.63,-0.66 6.03,-2 1.37,-1.34 2.06,-4.37 2.06,-9.12l0 -48.7c0,-5.09 -0.66,-8.17 -2.01,-9.32 -1.34,-1.14 -3.37,-1.68 -6.08,-1.68l-2.66 0 0 -2.06 57.76 0 0.83 16.4 -2.17 0c-0.97,-5.08 -2.37,-8.4 -4.2,-9.97 -1.83,-1.54 -5.26,-2.34 -10.32,-2.34l-20.55 0 0 29.61 16.43 0c3.86,0 6.72,-0.63 8.61,-1.89 1.88,-1.26 2.97,-4.26 3.2,-9l2.02 0 0 26.09 -2.02 0c-0.46,-5.06 -1.72,-8.17 -3.78,-9.37 -2.05,-1.18 -4.71,-1.78 -8.03,-1.78l-16.43 0 0 24.7c0,3.54 0.34,5.83 1.08,6.86 0.72,1.03 2.43,1.51 5.09,1.51l12.69 0c5.26,0 9.38,-0.83 12.35,-2.48 2.97,-1.69 6.12,-5.75 9.49,-12.21l2.17 0zm76.72 -1.54l-6.43 20.35 -58.02 0 0 -2.06 2.8 0c3.17,0 5.28,-0.8 6.37,-2.4 1.09,-1.6 1.63,-4.55 1.63,-8.86l0 -48.36c0,-5 -0.71,-8.12 -2.12,-9.35 -1.4,-1.25 -3.37,-1.85 -5.88,-1.85l-2.8 0 0 -2.06 33.95 0 0 2.06c-3.11,0 -5.6,0.28 -7.46,0.85 -1.86,0.6 -3.17,1.49 -3.94,2.66 -0.77,1.2 -1.15,4.18 -1.15,8.95l0 47.1c0,3.77 0.55,6.14 1.63,7.09 1.09,0.97 4.4,1.45 9.92,1.45l5.49 0c4.43,0 7.91,-0.25 10.46,-0.8 2.54,-0.51 4.91,-1.88 7.17,-4.08 2.23,-2.17 4.4,-5.86 6.57,-11.06l1.81 0.37zm11.75 20.35l0 -2.06 2.86 0c3.14,0 5.25,-0.8 6.34,-2.43 1.09,-1.6 1.6,-4.54 1.6,-8.77l0 -48.42c0,-5 -0.68,-8.12 -2.11,-9.35 -1.4,-1.25 -3.35,-1.85 -5.83,-1.85l-2.86 0 0 -2.06 30.52 0c8.52,0 15.86,0.83 22.07,2.49 6.17,1.65 11.54,5.57 16.09,11.71 4.54,6.12 6.83,13.75 6.83,22.9 0,7.06 -1.55,13.49 -4.63,19.35 -3.09,5.83 -7.69,10.37 -13.83,13.6 -6.12,3.26 -13.98,4.89 -23.56,4.89l-33.49 0zm21.41 -69.11l0 63.71c4.68,1.02 8.6,1.54 11.77,1.54 9.86,0 17.29,-3.34 22.26,-10.03 4.98,-6.72 7.46,-14.52 7.46,-23.41 0,-10.06 -2.74,-18.15 -8.2,-24.27 -5.49,-6.11 -12.8,-9.2 -21.95,-9.2 -3.31,0 -7.12,0.54 -11.34,1.66zm132.36 50.3l-6.46 18.81 -57.76 0 0 -2.06 2.65 0c2.63,0 4.63,-0.66 6.04,-2 1.37,-1.34 2.05,-4.37 2.05,-9.12l0 -48.7c0,-5.09 -0.66,-8.17 -2,-9.32 -1.34,-1.14 -3.37,-1.68 -6.09,-1.68l-2.65 0 0 -2.06 57.76 0 0.83 16.4 -2.18 0c-0.97,-5.08 -2.37,-8.4 -4.2,-9.97 -1.83,-1.54 -5.26,-2.34 -10.31,-2.34l-20.55 0 0 29.61 16.43 0c3.86,0 6.72,-0.63 8.6,-1.89 1.89,-1.26 2.98,-4.26 3.2,-9l2.03 0 0 26.09 -2.03 0c-0.45,-5.06 -1.71,-8.17 -3.77,-9.37 -2.06,-1.18 -4.71,-1.78 -8.03,-1.78l-16.43 0 0 24.7c0,3.54 0.34,5.83 1.08,6.86 0.72,1.03 2.43,1.51 5.09,1.51l12.69 0c5.26,0 9.37,-0.83 12.35,-2.48 2.97,-1.69 6.11,-5.75 9.49,-12.21l2.17 0zm86.49 18.81l-20.01 0 -25.38 -35.04c-1.86,0.08 -3.37,0.11 -4.54,0.11 -0.63,0 -1.72,-0.03 -3.26,-0.11l0 21.78c0,4.94 0.68,8.06 2.06,9.31 1.37,1.26 3.28,1.89 5.74,1.89l2.95 0 0 2.06 -32.13 0 0 -2.06 2.86 0c3.09,0 5.2,-0.8 6.29,-2.4 1.11,-1.6 1.65,-4.55 1.65,-8.8l0 -48.42c0,-4.97 -0.68,-8.06 -2.08,-9.32 -1.4,-1.25 -3.35,-1.88 -5.86,-1.88l-2.86 0 0 -2.06 27.3 0c6.71,0 12.08,0.43 16.14,1.29 4.06,0.88 7.61,2.97 10.58,6.28 3,3.32 4.48,7.23 4.48,11.72 0,10.06 -6.17,16.44 -18.46,19.18l15.49 21.49c3.86,5.32 7.12,8.72 9.81,10.2 2.68,1.49 5.77,2.38 9.23,2.72l0 2.06zm-53.19 -69.71l0 31.18 3.09 0c6.6,0 11.86,-1.43 15.74,-4.29 3.92,-2.85 5.86,-6.88 5.86,-12.11 0,-5.38 -1.63,-9.38 -4.88,-11.95 -3.26,-2.57 -6.98,-3.89 -11.15,-3.89 -3.54,0 -6.43,0.37 -8.66,1.06z"/>
    <path class="fil2" d="M81.55 502.9l2.73 0 0 -20.11 9.06 13.29 0.14 0 9.06 -13.32 0 20.14 2.81 0 0 -24.87 -2.84 0 -9.06 13.57 -9.06 -13.57 -2.84 0 0 24.87zm40.45 0l2.87 0 2.95 -6.57 13.54 0 2.91 6.57 3.02 0 -11.33 -25.04 -2.63 0 -11.33 25.04zm6.92 -9.09l5.69 -12.69 5.65 12.69 -11.34 0zm45.11 9.52c4.19,0 7.67,-1.74 9.98,-3.8l0 -9.92 -10.27 0 0 2.53 7.57 0 0 6.18c-1.71,1.38 -4.34,2.48 -7.18,2.48 -6.04,0 -9.84,-4.4 -9.84,-10.33l0 -0.07c0,-5.55 3.95,-10.2 9.45,-10.2 3.52,0 5.65,1.17 7.57,2.84l1.81 -2.13c-2.49,-2.1 -5.08,-3.3 -9.27,-3.3 -7.46,0 -12.47,6.04 -12.47,12.86l0 0.07c0,7.1 4.83,12.79 12.65,12.79zm28.05 -0.43l2.73 0 0 -20.39 16.06 20.39 2.24 0 0 -24.87 -2.74 0 0 19.93 -15.67 -19.93 -2.62 0 0 24.87zm40.05 0l2.81 0 0 -24.87 -2.81 0 0 24.87zm21.84 0l2.8 0 0 -10.83 13.47 0 0 -2.56 -13.47 0 0 -8.88 15.07 0 0 -2.6 -17.87 0 0 24.87zm35.29 0l2.81 0 0 -24.87 -2.81 0 0 24.87zm44.5 0.75l1.92 -2.1 -3.3 -2.73c1.92,-2.28 2.98,-5.23 2.98,-8.35l0 -0.07c0,-6.86 -5.08,-12.79 -12.65,-12.79 -7.56,0 -12.71,6 -12.71,12.86l0 0.07c0,6.85 5.08,12.79 12.64,12.79 3.09,0 5.76,-1 7.85,-2.67l3.27 2.99zm-11.05 -2.92c-5.68,0 -9.8,-4.61 -9.8,-10.26l0 -0.07c0,-5.65 4.05,-10.2 9.73,-10.2 5.69,0 9.81,4.62 9.81,10.27l0 0.07c0,2.45 -0.82,4.69 -2.17,6.43l-4.58 -4.16 -1.88 2.1 4.61 3.94c-1.52,1.17 -3.51,1.88 -5.72,1.88zm40.28 2.56c6.21,0 10.37,-3.76 10.37,-11.01l0 -14.25 -2.81 0 0 14.46c0,5.44 -2.91,8.21 -7.49,8.21 -4.76,0 -7.61,-3.02 -7.61,-8.39l0 -14.28 -2.8 0 0 14.46c0,7.04 4.19,10.8 10.34,10.8zm28.76 -0.39l18.15 0 0 -2.56 -15.35 0 0 -8.7 13.57 0 0 -2.56 -13.57 0 0 -8.49 15.17 0 0 -2.56 -17.97 0 0 24.87z"/>
    <path class="fil3" d="M0 493l61.16 0 0 -4.75 -61.16 0 0 4.75zm440.29 0l61.16 0 0 -4.75 -61.16 0 0 4.75z"/>
   </g>
  </g>
 </g>
</svg>
